<svg version="1.1" xmlns="http://www.w3.org/2000/svg"
     width="120px" height="120px" viewBox="0 0 412 412" enable-background="new 0 0 512 512" xml:space="preserve">
    <g id="html">
            <g id="c133de6af664cd4f011a55de6b000d0b">
                <path fill="#E44D25" display="inline"
                      d="M108.669,0.501h23.032v22.756h21.069V0.501h23.034V69.41h-23.032V46.334h-21.069V69.41h-23.032V0.501 H108.669z M206.091,23.353h-20.275V0.501h63.594v22.852h-20.285V69.41h-23.032V23.353H206.091z M259.502,0.501h24.02l14.771,24.213 l14.759-24.213h24.023V69.41h-22.938V35.256l-15.845,24.5h-0.395l-15.856-24.5V69.41h-22.539V0.501z M348.54,0.501h23.038v46.133 h32.391V69.41H348.54V0.501z M74.987,100.926l32.946,369.533l147.844,41.04L404.031,470.4l32.981-369.475H74.987z M368.289,188.62 l-2.063,22.977l-0.906,10.188h-0.149H256h-0.158h-63.956l4.142,46.407h59.814H256h92.98h12.214l-1.106,12.172l-10.65,119.32 l-0.682,7.652L256,433.045v0.008l-0.208,0.059l-92.839-25.774l-6.351-71.161h20.97h24.527l3.227,36.146l50.474,13.632l0.042-0.013 v-0.004l50.551-13.64l5.257-58.781H256h-0.158H154.578L143.439,188.62l-1.085-12.157h113.488H256h113.374L368.289,188.62z"/>
            </g>
    </g>
    <g id="css">
        <g id="c133de6af664cd4f011a55de6b001a2b">
             <path fill="#2157f2" display="inline"
                   d="  M204.064,46.682v22.018h-56.302V0.501h56.302v24.13h-32.172v22.051H204.064z M261.941,24.631h22.492 V0.501h-56.308c0,0,0,12.112,0,24.13c7.533,7.533,11.461,11.139,22.356,22.034c-6.369,0-22.356,0.022-22.356,0.021v22.014h56.308 V46.682L261.941,24.631z M341.746,24.631h22.49V0.501H307.93c0,0,0,12.112,0,24.13c7.531,7.533,11.461,11.139,22.355,22.034 c-6.365,0-22.355,0.022-22.355,0.021v22.014h56.307V46.682L341.746,24.631z M438.395,101.112l-34.203,370.486l-148.193,39.9 l-148.196-39.9L73.605,101.112H438.395z M369.477,176.444H255.865h-115.62l5.529,44.739h110.091h6.184l-6.184,2.574 l-106.067,44.177l3.518,43.73l102.549,0.333l54.963,0.175l-3.521,58.311l-51.442,14.484v-0.046l-0.422,0.116l-49.684-12.542 l-3.015-36.195h-0.164h-46.085h-0.162l6.032,69.876l93.5,27.649v-0.05l0.168,0.05l93-27.146L361.1,267.935H255.865h-0.26 l0.26-0.112l109.086-46.639L369.477,176.444z"/>
        </g>
    </g>
    <g id="js">
        <g id="5151e0c8492e5103c096af88a51e75c7">
            <path fill="#F7E01D" display="inline" fill-rule="evenodd"
                  clip-rule="evenodd"
                  d="M1.008,0.5C0.438,0.583,0.48,1.27,0.521,1.958 c0,169.668,0,339.31,0,508.974c169.364,1.135,340.808,0.162,510.979,0.486c0-170.309,0-340.61,0-510.918 C341.342,0.5,171.167,0.5,1.008,0.5z M259.893,452.167c-11.822,11.919-30.478,18.938-53.429,18.938 c-37.643,0-58.543-18.34-71.884-43.711c12.842-8.2,25.966-16.122,39.344-23.795c5.456,15.262,23.886,32.42,44.683,21.857 c13.183-6.699,11.661-27.01,11.661-49.054c0-45.773,0-98.578,0-139.872c-0.042-0.688-0.083-1.375,0.482-1.458 c15.707,0,31.413,0,47.116,0c0,36.788,0,78.402,0,117.529C277.866,395.199,280.91,430.988,259.893,452.167z M470.696,409.917 c-2.674,39.884-35.243,61.063-79.17,61.188c-43.062,0.124-70.624-19.013-87.433-48.567c12.085-8.317,25.778-15.017,38.375-22.822 c10.08,15.761,27.537,30.91,53.429,28.652c16.131-1.406,34.856-14.555,24.285-34.482c-5.127-9.66-17.516-14.567-28.656-19.425 c-35.352-15.424-76.828-29.571-72.861-84.992c1.327-18.514,9.852-31.525,20.889-40.796c11.311-9.5,26.46-15.867,46.629-16.511 c36.629-1.173,56.723,15.12,70.429,37.884c-11.664,8.891-24.514,16.608-37.401,24.281c-4.229-12.995-24.644-25.658-41.772-17.969 c-7.789,3.493-14.788,13.761-10.684,26.224c3.66,11.115,18.589,17.199,30.599,22.344 C433.706,340.486,474.331,355.693,470.696,409.917z"/> </g>
    </g>
    <g id="node">
        <g id="5151e0c8492e5103c096af88a51f0aa3">
            <path fill="#78A86E" display="inline" fill-rule="evenodd" clip-rule="evenodd"
                  d="M115.889,151.885l-24.053-13.773 c-1.512-0.891-2.451-2.499-2.451-4.244v-29.306c0-1.745-0.928-3.364-2.443-4.232l-10.239-5.899 c-0.742-0.444-1.601-0.662-2.432-0.662c-0.854,0-1.689,0.218-2.451,0.662l-10.246,5.899c-1.516,0.869-2.44,2.488-2.44,4.232v29.306 c0,1.745-0.928,3.342-2.446,4.244l-24.061,13.773c-0.747,0.458-1.675,0.458-2.429,0c-0.766-0.421-1.22-1.234-1.22-2.107 l-0.089-62.733c0-1.759,0.938-3.375,2.447-4.247L71.819,59.5c0.695-0.403,1.46-0.61,2.232-0.643c0.06,0,0.352,0,0.422,0 c0.776,0.033,1.541,0.24,2.229,0.643l40.48,23.299c1.52,0.873,2.443,2.488,2.443,4.247l-0.078,62.733 c0,0.873-0.469,1.686-1.216,2.107C117.586,152.344,116.643,152.344,115.889,151.885z M271.617,135.07V88.317 c0-1.748,0.932-3.36,2.443-4.232l40.503-23.373c1.508-0.873,3.371-0.876,4.887-0.004l10.136,5.844c0.532,0.307,1.187,0.307,1.715,0 c0.525-0.307,0.854-0.872,0.854-1.482V2.943c0-0.869,0.459-1.667,1.205-2.11c0.751-0.437,1.675-0.444,2.433-0.022l24.098,13.448 c1.552,0.861,2.51,2.499,2.51,4.27V135.07c0,1.749-0.932,3.36-2.447,4.236l-40.502,23.388c-1.512,0.88-3.379,0.88-4.895,0 l-40.495-23.388C272.549,138.43,271.617,136.818,271.617,135.07z M301.781,119.711c0,0.436,0.232,0.839,0.609,1.057l13.906,8.014 c0.377,0.214,0.843,0.214,1.22,0l13.906-8.014c0.377-0.218,0.609-0.621,0.609-1.057v-16.058c0-0.436-0.232-0.843-0.609-1.057 l-13.902-8.033c-0.381-0.218-0.847-0.218-1.228,0l-13.906,8.033c-0.373,0.214-0.605,0.621-0.605,1.057V119.711z M480.675,83.449 l-40.235-23.365c-1.513-0.88-3.383-0.883-4.898-0.004l-40.487,23.369c-1.512,0.873-2.443,2.488-2.443,4.236v46.738 c0,1.759,0.946,3.378,2.47,4.251l40.232,22.921c1.481,0.851,3.304,0.854,4.794,0.03L464.44,148.1 c0.772-0.433,1.253-1.242,1.257-2.122c0.007-0.88-0.462-1.697-1.228-2.137l-40.738-23.384c-0.758-0.436-1.228-1.246-1.228-2.122 v-14.645c0-0.873,0.466-1.682,1.224-2.122l12.679-7.312c0.754-0.433,1.686-0.433,2.439,0l12.687,7.312 c0.758,0.44,1.224,1.25,1.224,2.122v11.525c0,0.873,0.469,1.682,1.227,2.118c0.758,0.433,1.689,0.433,2.447-0.004l24.245-14.095 c1.512-0.876,2.437-2.487,2.437-4.232V87.678C483.111,85.933,482.187,84.321,480.675,83.449z M152.783,138.441l40.48,23.387 c1.516,0.873,3.378,0.873,4.894,0l40.495-23.387c1.512-0.876,2.443-2.488,2.443-4.236V87.434c0-1.745-0.932-3.364-2.447-4.236 l-40.491-23.365c-1.516-0.876-3.378-0.876-4.891,0l-40.483,23.365c-1.516,0.873-2.447,2.492-2.447,4.236v46.771 C150.336,135.954,151.268,137.565,152.783,138.441z M393.945,246.323l-124.834-72.14c-7.833-4.465-18.338-4.465-26.237,0 l-124.838,72.14c-8.088,4.658-13.093,13.396-13.093,22.755v144.073c0,9.353,5.005,18.102,13.093,22.767l32.732,18.856 c15.861,7.807,21.547,7.807,28.759,7.807c23.477,0,36.968-14.202,36.968-38.969V281.373c0-2.012-1.641-3.597-3.618-3.597h-15.832 c-2.011,0-3.626,1.585-3.626,3.597v142.239c0,10.979-11.363,21.905-29.916,12.639l-34.199-19.769 c-1.205-0.654-1.971-1.948-1.971-3.331V269.078c0-1.367,0.766-2.728,1.978-3.423l124.764-72.015c1.156-0.673,2.694-0.673,3.844,0 l124.79,71.996c1.193,0.714,1.937,2.029,1.937,3.441v144.073c0,1.383-0.743,2.706-1.907,3.371l-124.841,72.06 c-1.068,0.65-2.706,0.65-3.867,0l-32.022-19.015c-0.953-0.547-2.173-0.754-3.098-0.229c-8.864,5.031-10.542,5.692-18.845,8.576 c-2.055,0.717-5.09,1.948,1.128,5.419l41.682,24.663c3.992,2.313,8.535,3.504,13.093,3.504c4.624,0,9.152-1.19,13.145-3.504 l124.834-72.078c8.084-4.705,13.114-13.414,13.114-22.767V269.078C407.06,259.719,402.029,250.999,393.945,246.323z M299.448,399.408c-37.253,0-45.448-9.359-48.194-27.886c-0.318-1.978-2.012-3.453-4.044-3.453h-18.202 c-2.255,0-4.065,1.804-4.065,4.07c0,23.705,12.904,51.983,74.506,51.983c44.605,0,70.182-17.559,70.182-48.231 c0-30.415-20.553-38.503-63.809-44.232c-43.719-5.785-48.161-8.768-48.161-19.007c0-8.436,3.763-19.717,36.144-19.717 c28.918,0,39.578,6.231,43.962,25.716c0.385,1.837,2.056,3.176,3.948,3.176h18.271c1.135,0,2.211-0.488,2.979-1.294 c0.772-0.854,1.183-1.967,1.075-3.135c-2.827-33.579-25.143-49.226-70.236-49.226c-40.14,0-64.078,16.94-64.078,45.333 c0,30.813,23.819,39.334,62.333,43.134c46.092,4.525,49.67,11.256,49.67,20.327C341.729,392.703,329.105,399.408,299.448,399.408z M438.328,101.044c-0.288-0.17-0.646-0.17-0.935,0l-7.767,4.484c-0.292,0.167-0.47,0.477-0.47,0.81v8.979 c0,0.333,0.178,0.644,0.47,0.81l7.767,4.484c0.288,0.167,0.646,0.167,0.935,0l7.773-4.484c0.293-0.166,0.47-0.477,0.47-0.81v-8.979 c0-0.333-0.177-0.643-0.47-0.81L438.328,101.044z"/>
        </g>
    </g>
    <g id="git">
            <path fill="#EF3C2D" display="inline"
                  d="M501.862,279.793l-222.07,222.065c-12.862,12.85-33.694,12.85-46.54,0L10.141,278.762 c-12.854-12.851-12.854-33.69,0-46.553l152.98-152.974l57.933,57.942c-5.94,14.229-3.152,31.233,8.436,42.811 c3.787,3.799,8.153,6.635,12.819,8.544V328.83c-4.666,1.913-9.039,4.766-12.819,8.542c-15.297,15.295-15.297,40.071,0,55.383 c15.281,15.296,40.074,15.296,55.373,0c15.295-15.312,15.295-40.088,0-55.383c-3.11-3.094-6.629-5.556-10.358-7.402l0.004-139.01 l52.826,52.826c-5.826,14.174-2.982,31.074,8.521,42.585c15.308,15.304,40.088,15.304,55.392,0 c15.295-15.299,15.295-40.079,0-55.372c-10.945-10.962-26.756-14.015-40.458-9.293l-56.64-56.639 c4.729-13.707,1.655-29.501-9.286-40.454c-10.887-10.888-26.546-13.981-40.206-9.369l-58.767-58.769l46.326-46.333 c12.856-12.852,33.696-12.852,46.533,0L501.862,233.24C514.712,246.092,514.712,266.938,501.862,279.793z"/>
    </g>
    <g id="github">
        <path fill="" id="XMLID_1_" display="inline"
              d="M6.962,266.753c22.59-5.641,53.305-13.324,107.118-14.753 c-1.487-2.974-2.83-6.053-4.019-9.228c-20.94-0.182-85.43,2.792-107.521,8.25c-0.125,0.039-0.259,0.048-0.393,0.048 c-0.739,0-1.42-0.508-1.602-1.256c-0.211-0.873,0.326-1.774,1.208-1.995c21.89-5.41,84.825-8.413,107.118-8.355 c-5.017-14.753-7.233-31.655-7.233-50.523c0-33.516,10.437-46.159,24.46-64.02c-10.724-38.197,3.847-64.307,3.847-64.307 s22.533-4.671,65.132,25.832c23.089-9.89,84.647-10.714,113.77-2.196c17.88-11.818,50.571-28.585,63.77-23.895 c3.568,5.755,11.262,22.513,4.662,59.348c4.489,8.077,27.761,25.286,27.856,73.928c-0.384,17.938-2.245,33.084-5.698,45.899 c55.54-0.47,88.212,4.115,110.715,8.259c0.883,0.182,1.478,1.036,1.324,1.928c-0.153,0.787-0.844,1.353-1.611,1.353 c-0.115,0-0.211-0.009-0.326-0.019c-22.466-4.163-55.194-8.729-111.061-8.221c-0.979,3.252-2.072,6.341-3.262,9.286 c19.013,0.633,71.233,2.667,113.823,15.693c0.883,0.269,1.362,1.189,1.094,2.072c-0.211,0.7-0.863,1.16-1.573,1.16 c-0.153,0-0.326-0.019-0.479-0.076c-43.185-13.199-96.538-15.012-114.283-15.598c-15.444,33.929-47.118,46.59-98.322,51.856 c16.595,10.446,21.353,23.548,21.353,59.003c0,35.453-0.479,40.211-0.364,48.363c0.173,13.383,19.779,19.789,19.051,24.096 c-0.729,4.299-16.403,3.607-23.731,1.047c-20.758-7.232-18.687-24.5-18.687-24.5l-0.69-47.404c0,0,1.42-25.516-8-25.516 c0,5.131,0,59.242,0,77.592c0,16.863,11.799,21.986,11.799,28.221c0,10.715-21.563-1.016-28.202-7.703 c-10.134-10.168-8.982-31.73-8.733-48.785c0.23-16.471-0.153-52.49-0.153-52.49l-6.877,0.145c0,0,2.82,78.686-3.626,93.025 c-8.335,18.408-33.477,24.74-33.477,16.355c0-5.641,6.196-3.846,9.621-16.488c2.925-10.754,1.928-90.975,1.928-90.975 s-8.057,4.768-8.057,19.789c0,6.877-0.192,46.158-0.192,57.852c0,14.705-20.883,23.078-30.917,23.078 c-5.084,0-11.405-0.248-11.405-2.943c0-6.801,19.099-10.793,19.099-24.941c0-12.268-0.269-43.826-0.269-43.826 s-9.631,1.648-23.367,1.648c-34.628,0-45.583-22.1-50.792-34.465c-6.782-16.105-15.578-23.673-24.921-29.717 c-5.736-3.712-7.06-8.096-0.422-9.343c30.657-5.774,38.494,34.763,58.964,41.218c14.609,4.615,33.391,2.619,42.734-3.424 c1.238-12.385,10.159-23.089,17.593-28.729c-52.067-4.998-82.936-23.079-98.936-52.145c-54.466,1.305-85.372,9.036-108.029,14.695 c-1.65,0.413-3.261,0.815-4.815,1.209c-0.134,0.028-0.269,0.038-0.403,0.038c-0.739,0-1.41-0.499-1.602-1.247 c-0.221-0.882,0.326-1.784,1.209-2.005C3.72,267.567,5.322,267.175,6.962,266.753z"/>
    </g>
</svg>